<svg xmlns="http://www.w3.org/2000/svg" width="82.752" height="90.699" viewBox="0 0 82.752 90.699">
  <path id="Path_9069" data-name="Path 9069" d="M66.106,9.4C9.957,32.245,7.689,80.49,7.689,80.49a2.386,2.386,0,0,0,4.767.238s2.51-46.748,58-67.913c-1.387,3.4-3.161,6.531-4.731,9.848a2.386,2.386,0,0,0,4.314,2.043c1.748-3.694,3.731-7.172,5.2-11.011a31.7,31.7,0,0,0,1.389-4.366,2.4,2.4,0,0,0-1.167-2.285,16.752,16.752,0,0,0-5.832-1.972c-2.768-.482-5.751-.6-8-1.028a2.386,2.386,0,1,0-.892,4.688c1.549.295,3.438.45,5.37.67Z" transform="translate(74.46 96.093) rotate(-169)" fill="#fff" fill-rule="evenodd"/>
</svg>
