<svg xmlns="http://www.w3.org/2000/svg" width="96.244" height="91.72" viewBox="0 0 96.244 91.72">
  <g id="favourite" transform="translate(0)">
    <g id="Bookmark_00000002371508813099837470000005156419187743538101_" transform="translate(1.887 1.887)">
      <path id="Path_9064" data-name="Path 9064" d="M79.532,78.173,102.47,55.581l-31.837-4.8-14.4-28.8-14.4,28.8L10,55.581,32.938,78.173l-5.279,31.761L56.235,95.1l28.576,14.835Z" transform="translate(-10 -21.989)" fill="#fdcb50"/>
      <g id="Bookmark_00000007402357642485415310000008909949776684852145_" transform="translate(0 29.63)">
        <path id="Path_9065" data-name="Path 9065" d="M84.81,237.315,56.235,222.48,27.66,237.315l5.278-31.761L10,182.961,36.3,179q-.025.7-.025,1.4a40.334,40.334,0,0,0,45.714,39.94Z" transform="translate(-10 -179)" fill="#fd8f01"/>
      </g>
    </g>
    <g id="Bookmark_00000061456267634286893900000012935319083935557293_" transform="translate(0 0)">
      <g id="Group_5283" data-name="Group 5283" transform="translate(0 0)">
        <path id="Path_9066" data-name="Path 9066" d="M76.7,103.709a1.883,1.883,0,0,1-.869-.212L48.122,89.113,20.416,103.5a1.887,1.887,0,0,1-2.731-1.984L22.8,70.718.563,48.813A1.887,1.887,0,0,1,1.606,45.6l30.868-4.649,13.96-27.921a1.887,1.887,0,0,1,3.376,0L63.77,40.953,94.638,45.6a1.887,1.887,0,0,1,1.043,3.211l-22.24,21.9,5.118,30.795a1.888,1.888,0,0,1-1.861,2.2ZM48.122,85.1a1.885,1.885,0,0,1,.869.212l25.226,13.1L69.557,70.37a1.887,1.887,0,0,1,.537-1.654L90.344,48.772l-28.1-4.233a1.887,1.887,0,0,1-1.407-1.022L48.122,18.1,35.411,43.517A1.888,1.888,0,0,1,34,44.539L5.9,48.772,26.149,68.716a1.888,1.888,0,0,1,.537,1.654l-4.66,28.038,25.226-13.1A1.886,1.886,0,0,1,48.122,85.1Z" transform="translate(0 -11.989)" fill="#1c2e72"/>
      </g>
    </g>
  </g>
</svg>
