<svg xmlns="http://www.w3.org/2000/svg" xmlns:xlink="http://www.w3.org/1999/xlink" width="202.222" height="84.717" viewBox="0 0 202.222 84.717">
  <defs>
    <clipPath id="clip-path">
      <path id="Path_8964" data-name="Path 8964" d="M36.791.385l7.426,1.834q-.091.543-.419,2.174t-.815,3.985q-.487,2.355-1.1,5.275t-1.257,6.034q-.645,3.113-1.313,6.249L38.048,31.89q-.6,2.819-1.109,5.139T36.09,40.8H26.377q-.2-.589-.475-1.664t-.6-2.479q-.328-1.4-.7-3.079T23.807,30.1q-.419-1.8-.838-3.645t-.849-3.634q-.43,1.789-.86,3.645t-.838,3.657q-.408,1.8-.792,3.464t-.713,3.068q-.328,1.4-.611,2.468T17.841,40.8H8.128q-.34-1.449-.849-3.77T6.17,31.9L4.9,25.969q-.668-3.124-1.313-6.238T2.332,13.72q-.611-2.9-1.1-5.253T.419,4.483Q.091,2.853,0,2.309L7.426.475l5.887,27.894L18.52,4.324H25.7L30.9,28.278ZM54.949,33.463H68.783v7.766H46.98V.113h7.653Zm41.569-1.177L83.069,32.2l-3.147,9.758L72.79,39.146q.136-.43.532-1.641t1-3.023q.6-1.811,1.347-4.087t1.574-4.8q.826-2.524,1.709-5.185l1.743-5.253q.86-2.592,1.653-4.992t1.46-4.392q.668-1.992,1.166-3.475t.747-2.23L93.348,0q.317.725.872,2.2T95.488,5.66q.713,1.992,1.54,4.4t1.721,5.026q.894,2.615,1.8,5.3t1.755,5.23q.849,2.547,1.608,4.845t1.358,4.121q.6,1.823,1.008,3.045t.543,1.653l-7.132,2.807ZM85.9,24.52l7.788.023L89.794,12.136Z" transform="translate(0 0)" fill="#fff"/>
    </clipPath>
    <clipPath id="clip-path-2">
      <path id="Path_8967" data-name="Path 8967" d="M27.8,20.316a20.08,20.08,0,0,1-.792,6.339,17.779,17.779,0,0,1-6.826,9.532,22.687,22.687,0,0,1-5.615,2.9,28.493,28.493,0,0,1-6.792,1.472A36.453,36.453,0,0,1,0,40.444V.211a44,44,0,0,1,7.37-.1,29.631,29.631,0,0,1,6.566,1.2,22.2,22.2,0,0,1,5.547,2.558A17.073,17.073,0,0,1,23.8,7.852a18.508,18.508,0,0,1,2.841,5.468A24.921,24.921,0,0,1,27.8,20.316Zm-7.019,1.63a18.465,18.465,0,0,0-.668-5.309,12.538,12.538,0,0,0-2.332-4.551,12.384,12.384,0,0,0-4.234-3.294A17.149,17.149,0,0,0,7.177,7.229L7.336,34.24a17.139,17.139,0,0,0,5.479-1.234,13.886,13.886,0,0,0,4.223-2.683,12,12,0,0,0,2.728-3.792A11.462,11.462,0,0,0,20.784,21.946Z" transform="translate(0 4.829) rotate(-10)" fill="#fff"/>
    </clipPath>
  </defs>
  <g id="CONTEST_transparent_violet" data-name="CONTEST transparent violet" transform="translate(-104.951 -478.11)">
    <path id="Path_8959" data-name="Path 8959" d="M29.079,34.427l-17.306-.1-3.6,10.405L0,41.742q.156-.459.609-1.75T1.75,36.769q.687-1.931,1.543-4.358t1.8-5.118q.946-2.692,1.958-5.529l2-5.6q.985-2.764,1.893-5.323t1.673-4.684q.765-2.125,1.335-3.706T14.807.072L25.448,0q.363.773,1,2.342T27.9,6.036q.817,2.125,1.763,4.7t1.971,5.36q1.024,2.788,2.061,5.649t2.01,5.577q.972,2.716,1.841,5.166T39.1,36.878q.687,1.943,1.154,3.247t.622,1.762L30.806,44.881ZM15.014,26.146l10.823.024L19.474,12.94Z" transform="translate(131.561 480.242)" fill="#311d71"/>
    <ellipse id="Ellipse_366" data-name="Ellipse 366" cx="16.448" cy="17.313" rx="16.448" ry="17.313" transform="translate(158.689 527.222)" fill="#311d71"/>
    <ellipse id="Ellipse_364" data-name="Ellipse 364" cx="22.94" cy="23.806" rx="22.94" ry="23.806" transform="translate(258.24 482.207)" fill="#311d71"/>
    <path id="Path_8953" data-name="Path 8953" d="M0,8.3,165.615,0l25.8,31.39L191.89,78.1,3.828,84.717Z" transform="translate(115.283 478.11)" fill="#311d71"/>
    <path id="Path_8955" data-name="Path 8955" d="M11.389,30.16a12.31,12.31,0,0,1-6.009-1.418A9.912,9.912,0,0,1,1.4,24.825,11.477,11.477,0,0,1,0,19.131a12.851,12.851,0,0,1,1.463-6.1A11.1,11.1,0,0,1,5.6,8.643a11.634,11.634,0,0,1,6.144-1.621,11.362,11.362,0,0,1,6.415,1.8,9.962,9.962,0,0,1,3.849,4.5,3.317,3.317,0,0,1,.27,1.215q0,1.26-1.756,1.711a3.119,3.119,0,0,1-.9.135,1.859,1.859,0,0,1-1.26-.428,5.511,5.511,0,0,1-1.035-1.328,6.9,6.9,0,0,0-2.071-2.386,5.3,5.3,0,0,0-3.2-.945,5.748,5.748,0,0,0-3.421,1.058,7.066,7.066,0,0,0-2.318,2.858,9.322,9.322,0,0,0-.833,3.961A7.021,7.021,0,0,0,7.135,24.06a6.122,6.122,0,0,0,4.794,1.823,5.971,5.971,0,0,0,4.479-1.553A5.115,5.115,0,0,0,17.961,20.8a1.457,1.457,0,0,1,.63-1.17,2.62,2.62,0,0,1,1.666-.5,3.235,3.235,0,0,1,1.936.5,1.984,1.984,0,0,1,.675,1.711,8.144,8.144,0,0,1-1.193,4.186,8.856,8.856,0,0,1-3.759,3.331A14.356,14.356,0,0,1,11.389,30.16ZM65,7.2a7.14,7.14,0,0,1,5.987,2.723Q73.1,12.649,73.1,18.051l-.045,10.308a1.468,1.468,0,0,1-.765,1.35,3.771,3.771,0,0,1-1.936.45,4.4,4.4,0,0,1-1.981-.405,1.3,1.3,0,0,1-.81-1.215V18.006a11.762,11.762,0,0,0-.765-4.974,2.654,2.654,0,0,0-2.566-1.508,3.238,3.238,0,0,0-2.746,1.418A11.712,11.712,0,0,0,59.869,17.6a28.87,28.87,0,0,0-.315,4.5l.045,6.077a1.723,1.723,0,0,1-.743,1.508,3.446,3.446,0,0,1-2,.518,3.338,3.338,0,0,1-2-.54,1.737,1.737,0,0,1-.743-1.485q0-7.562-.315-14.945a3.259,3.259,0,0,0-.225-1.26,6.159,6.159,0,0,0-.518-.99q-.293-.45-.383-.63A1.385,1.385,0,0,1,52.4,9.5a1.976,1.976,0,0,1,.968-1.53,3.11,3.11,0,0,1,1.823-.72,1.517,1.517,0,0,1,.855.27,3.932,3.932,0,0,1,.9.945,4.6,4.6,0,0,1,1.08,2.7v.36a7.529,7.529,0,0,1,2.5-3.083A7.4,7.4,0,0,1,65,7.2Zm25.568,14.54a2.571,2.571,0,0,1,1.823.54,2.28,2.28,0,0,1,.563,1.711,5.979,5.979,0,0,1-1.778,4.479A6.214,6.214,0,0,1,86.653,30.2a5.731,5.731,0,0,1-5.424-3.083q-1.688-3.083-1.688-9.791,0-1.4.09-3.826l-1.621-.09q-2.161-.09-2.161-2.116a2.087,2.087,0,0,1,.585-1.643,2.758,2.758,0,0,1,1.936-.473l1.621.09q.315-3.2,1.035-7.337Q81.386,0,83.682,0A2.949,2.949,0,0,1,85.82.72a1.807,1.807,0,0,1,.563,1.711q-.72,4.862-.945,7.112l2.746.045a1.8,1.8,0,0,1,1.981,2.026,1.979,1.979,0,0,1-.54,1.53,2.718,2.718,0,0,1-1.846.5h-2.7q-.09,2.341-.09,3.691a33.169,33.169,0,0,0,.45,6.662q.45,1.891,1.576,1.891a1.118,1.118,0,0,0,1.035-.518,3.788,3.788,0,0,0,.36-1.733,1.99,1.99,0,0,1,.54-1.44A2.377,2.377,0,0,1,90.569,21.742ZM108.08,30.52a13.566,13.566,0,0,1-6.73-1.553,10.186,10.186,0,0,1-4.164-4.231,12.809,12.809,0,0,1-1.4-6.009,11.76,11.76,0,0,1,1.553-6.009A11.026,11.026,0,0,1,101.62,8.53a13.344,13.344,0,0,1,11.726-.293,9.353,9.353,0,0,1,5.357,8.688,4.231,4.231,0,0,1-.563,2.5,2.489,2.489,0,0,1-2.093.743l-15.44.135a4.888,4.888,0,0,0,.855,2.611,6.791,6.791,0,0,0,2.521,2.273,7.954,7.954,0,0,0,3.916.923,7.656,7.656,0,0,0,2.588-.383,6.057,6.057,0,0,0,1.733-.923,16.545,16.545,0,0,0,1.576-1.485,2.065,2.065,0,0,1,1.485-.675,2.5,2.5,0,0,1,1.643.675,1.985,1.985,0,0,1,.788,1.53,2.629,2.629,0,0,1-.5,1.4,10.183,10.183,0,0,1-3.264,2.948A11.243,11.243,0,0,1,108.08,30.52Zm5.537-13.954a.612.612,0,0,0,.473-.135.8.8,0,0,0,.113-.5,4.085,4.085,0,0,0-1.846-3.421,8.315,8.315,0,0,0-8.35-.428,7.121,7.121,0,0,0-2.521,2.251,4.442,4.442,0,0,0-.878,2.363Zm17.6,13.954a9.946,9.946,0,0,1-5.447-1.485,8.853,8.853,0,0,1-3.421-3.871,2.622,2.622,0,0,1-.27-1.17,2.274,2.274,0,0,1,.9-1.485,2.689,2.689,0,0,1,1.756-.675,1.527,1.527,0,0,1,.99.293,6.19,6.19,0,0,1,.81.833,12.842,12.842,0,0,0,2.251,2.363,4.01,4.01,0,0,0,2.476.743,4.239,4.239,0,0,0,2.363-.63,1.933,1.933,0,0,0-.09-3.4,21.475,21.475,0,0,0-3.4-1.418,32.98,32.98,0,0,1-3.849-1.53,7.147,7.147,0,0,1-2.521-2.093,5.549,5.549,0,0,1-1.058-3.489,5.95,5.95,0,0,1,1.17-3.646,7.54,7.54,0,0,1,3.174-2.431,11.062,11.062,0,0,1,4.389-.855,9.6,9.6,0,0,1,4.389.945,7.082,7.082,0,0,1,2.858,2.5,6.122,6.122,0,0,1,.99,3.354,2.213,2.213,0,0,1-.563,1.666,2.647,2.647,0,0,1-1.868.54,2.533,2.533,0,0,1-1.688-.405A2.01,2.01,0,0,1,135,14.045q-.315-3.016-3.556-3.016a3.643,3.643,0,0,0-2.431.7,2.109,2.109,0,0,0-.81,1.643,1.947,1.947,0,0,0,1.08,1.756,20.485,20.485,0,0,0,3.466,1.44,28.169,28.169,0,0,1,3.781,1.44,7.182,7.182,0,0,1,2.543,2.071,5.454,5.454,0,0,1,1.058,3.466,5.847,5.847,0,0,1-1.328,3.939,7.885,7.885,0,0,1-3.376,2.3A12.255,12.255,0,0,1,131.217,30.52Zm26.2-8.778a2.571,2.571,0,0,1,1.823.54,2.28,2.28,0,0,1,.563,1.711,5.979,5.979,0,0,1-1.778,4.479A6.214,6.214,0,0,1,153.5,30.2a5.731,5.731,0,0,1-5.424-3.083q-1.688-3.083-1.688-9.791,0-1.4.09-3.826l-1.621-.09q-2.161-.09-2.161-2.116a2.087,2.087,0,0,1,.585-1.643,2.757,2.757,0,0,1,1.936-.473l1.621.09q.315-3.2,1.035-7.337Q148.233,0,150.528,0a2.949,2.949,0,0,1,2.138.72,1.807,1.807,0,0,1,.563,1.711q-.72,4.862-.945,7.112l2.746.045a1.8,1.8,0,0,1,1.981,2.026,1.979,1.979,0,0,1-.54,1.53,2.718,2.718,0,0,1-1.846.5h-2.7q-.09,2.341-.09,3.691a33.172,33.172,0,0,0,.45,6.662q.45,1.891,1.576,1.891a1.118,1.118,0,0,0,1.035-.518,3.788,3.788,0,0,0,.36-1.733,1.99,1.99,0,0,1,.54-1.44A2.377,2.377,0,0,1,157.416,21.742Z" transform="translate(136.968 523.032)" fill="#f3cda2"/>
    <path id="Path_8952" data-name="Path 8952" d="M20.312,12.895,19.2,20.07h1.745a2.148,2.148,0,0,1,1.551.557,2.077,2.077,0,0,1-.024,2.909,2.07,2.07,0,0,1-1.527.606H18.567L17.84,28.8a2.1,2.1,0,0,1-.7,1.333,2.248,2.248,0,0,1-1.479.461,1.973,1.973,0,0,1-1.454-.582,1.384,1.384,0,0,1-.436-1.309l.727-4.557H7.417L6.738,28.8A1.944,1.944,0,0,1,4.7,30.638a1.9,1.9,0,0,1-1.576-.7,2.242,2.242,0,0,1-.412-1.769L3.3,24.142H2.181a2.3,2.3,0,0,1-1.576-.533A1.838,1.838,0,0,1,0,22.154,1.933,1.933,0,0,1,.606,20.7a2.117,2.117,0,0,1,1.527-.582H3.927l1.066-7.369H3.781a2.278,2.278,0,0,1-1.6-.533A1.875,1.875,0,0,1,1.6,10.762a1.99,1.99,0,0,1,.606-1.5,2.18,2.18,0,0,1,1.576-.582H5.623l.97-6.5A2.828,2.828,0,0,1,7.247.654,1.778,1.778,0,0,1,8.629.1,2,2,0,0,1,10.18.679a2.07,2.07,0,0,1,.533,1.454l-.048.485L9.744,8.726l7.126.1,1.115-7.078A2.285,2.285,0,0,1,18.736.461a2.037,2.037,0,0,1,2.69.1,1.894,1.894,0,0,1,.582,1.43,1.47,1.47,0,0,1-.048.436L20.942,8.871h.533a2.235,2.235,0,0,1,1.576.557,1.913,1.913,0,0,1,.606,1.479,1.875,1.875,0,0,1-.582,1.454,2.278,2.278,0,0,1-1.6.533ZM15.125,20.07q.291-1.939.485-2.957l.63-4.266L9.162,12.8l-1.115,7.32Z" transform="translate(106.932 493.499) rotate(-9)" fill="#f3cda2"/>
    <path id="Tracé_8952_-_Contour" data-name="Tracé 8952 - Contour" d="M21.752,1.731a1.959,1.959,0,0,0-1.285.461,2.285,2.285,0,0,0-.751,1.285L18.6,10.554l-7.126-.1L12.4,4.349l.048-.485a2.07,2.07,0,0,0-.533-1.454,2,2,0,0,0-1.551-.582,1.778,1.778,0,0,0-1.382.557,2.828,2.828,0,0,0-.654,1.527l-.97,6.5H5.513a2.18,2.18,0,0,0-1.576.582,1.99,1.99,0,0,0-.606,1.5,1.875,1.875,0,0,0,.582,1.454,2.278,2.278,0,0,0,1.6.533H6.724L5.658,21.849H3.864a2.117,2.117,0,0,0-1.527.582,1.933,1.933,0,0,0-.606,1.454,1.838,1.838,0,0,0,.606,1.454,2.3,2.3,0,0,0,1.576.533H5.028L4.446,29.9a2.242,2.242,0,0,0,.412,1.769,1.9,1.9,0,0,0,1.576.7A1.944,1.944,0,0,0,8.47,30.527l.679-4.654h7.078L15.5,30.43a1.384,1.384,0,0,0,.436,1.309,1.973,1.973,0,0,0,1.454.582,2.248,2.248,0,0,0,1.479-.461,2.1,2.1,0,0,0,.7-1.333l.727-4.654h2.375a2.07,2.07,0,0,0,1.527-.606,2.077,2.077,0,0,0,.024-2.909,2.148,2.148,0,0,0-1.551-.557H20.928l1.115-7.175h1.163a2.278,2.278,0,0,0,1.6-.533,1.875,1.875,0,0,0,.582-1.454,1.913,1.913,0,0,0-.606-1.479,2.235,2.235,0,0,0-1.576-.557h-.533l1.018-6.447a1.471,1.471,0,0,0,.048-.436,1.894,1.894,0,0,0-.582-1.43,1.958,1.958,0,0,0-1.406-.557M9.779,21.849l1.115-7.32,7.078.048-.63,4.266q-.194,1.018-.485,2.957l-7.078.048M21.752,0a3.693,3.693,0,0,1,2.6,1.039,3.619,3.619,0,0,1,1.115,2.68,3.331,3.331,0,0,1-.085.8l-.725,4.591a3.736,3.736,0,0,1,1.293.775,3.634,3.634,0,0,1,1.165,2.753,3.576,3.576,0,0,1-1.143,2.731,3.852,3.852,0,0,1-2.449.979l-.58,3.729a3.8,3.8,0,0,1,2.474,1.031,3.808,3.808,0,0,1,0,5.383A3.8,3.8,0,0,1,22.673,27.6H21.78l-.5,3.207a3.841,3.841,0,0,1-1.308,2.383,3.935,3.935,0,0,1-2.581.857,3.7,3.7,0,0,1-2.679-1.089,3.107,3.107,0,0,1-.917-2.833l.4-2.525H10.645l-.459,3.146A3.669,3.669,0,0,1,6.434,34.1,3.624,3.624,0,0,1,3.5,32.742a3.943,3.943,0,0,1-.771-3.079l0-.014.307-2.124a3.848,3.848,0,0,1-1.846-.885A3.553,3.553,0,0,1,0,23.885a3.66,3.66,0,0,1,1.138-2.7,3.853,3.853,0,0,1,2.726-1.064h.295l.574-3.964a3.727,3.727,0,0,1-1.99-.93A3.576,3.576,0,0,1,1.6,12.493,3.717,3.717,0,0,1,2.738,9.741,3.915,3.915,0,0,1,5.513,8.677h.35l.749-5.02A4.53,4.53,0,0,1,7.7,1.218,3.5,3.5,0,0,1,10.36.1,3.679,3.679,0,0,1,13.188,1.24a3.809,3.809,0,0,1,.988,2.624v.086l-.061.614-.632,4.189,3.642.05.892-5.66.015-.063A3.985,3.985,0,0,1,19.365.857,3.706,3.706,0,0,1,21.752,0ZM15.967,16.3l-3.588-.025L11.8,20.1l3.575-.024c.1-.609.186-1.119.262-1.524Z" transform="translate(104.951 492.06) rotate(-9)" fill="#311d71"/>
    <path id="Path_8954" data-name="Path 8954" d="M7.412,10.835a12.453,12.453,0,0,1-4.322-.616A4.585,4.585,0,0,1,.733,8.439,5.12,5.12,0,0,1,0,5.652,4.2,4.2,0,0,1,.362,3.706a1.164,1.164,0,0,1,1.085-.675,2.167,2.167,0,0,1,.626.088,1.455,1.455,0,0,1,.45.205q-.078.391-.147.861a6.5,6.5,0,0,0-.068.939A3.161,3.161,0,0,0,2.865,7.1,3.069,3.069,0,0,0,4.606,8.126a12.279,12.279,0,0,0,2.983.3,13.61,13.61,0,0,0,2.22-.176,12.418,12.418,0,0,0,1.838-.43,3.667,3.667,0,0,0,1.066-.489V7.119a10.638,10.638,0,0,0-.1-1.33q-.1-.763-.274-1.584t-.332-1.467a2.6,2.6,0,0,1,.508-.264,1.8,1.8,0,0,1,.685-.127,1.256,1.256,0,0,1,.88.3,2.2,2.2,0,0,1,.528,1.105q.078.372.147.909t.117,1.105q.049.567.049,1.017a3.958,3.958,0,0,1-.332,1.76A2.793,2.793,0,0,1,13.338,9.7a9.234,9.234,0,0,1-2.591.841A17.984,17.984,0,0,1,7.412,10.835ZM5.848,2.425a1.21,1.21,0,0,1-.88-.323,1.182,1.182,0,0,1-.332-.89,1.19,1.19,0,0,1,.332-.88A1.19,1.19,0,0,1,5.848,0a1.182,1.182,0,0,1,.89.332,1.21,1.21,0,0,1,.323.88,1.2,1.2,0,0,1-.323.89A1.2,1.2,0,0,1,5.848,2.425Zm3.051,0a1.19,1.19,0,0,1-.88-.332,1.19,1.19,0,0,1-.332-.88,1.182,1.182,0,0,1,.332-.89A1.21,1.21,0,0,1,8.9,0a1.2,1.2,0,0,1,.89.323,1.2,1.2,0,0,1,.323.89,1.21,1.21,0,0,1-.323.88A1.182,1.182,0,0,1,8.9,2.425Z" transform="translate(167.542 537.228) rotate(-1)" fill="#f3cda2"/>
    <path id="Path_8956" data-name="Path 8956" d="M13.5,31.144A13.546,13.546,0,0,1,3.84,27.53Q0,23.915,0,16.2A21.218,21.218,0,0,1,1.572,7.741,12.9,12.9,0,0,1,6.134,2.048,12.187,12.187,0,0,1,13.2,0a13.265,13.265,0,0,1,7.036,1.9,12.915,12.915,0,0,1,4.9,5.542,19.673,19.673,0,0,1,1.778,8.7q0,7.349-3.685,11.174A12.875,12.875,0,0,1,13.5,31.144Zm-.1-3.8a9,9,0,0,0,6.83-2.861q2.706-2.861,2.706-8.4a16.029,16.029,0,0,0-1.211-6.416,9.975,9.975,0,0,0-3.4-4.337A8.537,8.537,0,0,0,13.3,3.8,8.08,8.08,0,0,0,6.52,7.169a14.406,14.406,0,0,0-2.551,8.916q0,5.843,2.732,8.554A9.147,9.147,0,0,0,13.4,27.349Z" transform="matrix(0.999, -0.035, 0.035, 0.999, 161.107, 527.421)" fill="#f3cda2"/>
    <g id="Group_5154" data-name="Group 5154" transform="translate(135.09 481.269)">
      <path id="Path_8267" data-name="Path 8267" d="M36.791.385l7.426,1.834q-.091.543-.419,2.174t-.815,3.985q-.487,2.355-1.1,5.275t-1.257,6.034q-.645,3.113-1.313,6.249L38.048,31.89q-.6,2.819-1.109,5.139T36.09,40.8H26.377q-.2-.589-.475-1.664t-.6-2.479q-.328-1.4-.7-3.079T23.807,30.1q-.419-1.8-.838-3.645t-.849-3.634q-.43,1.789-.86,3.645t-.838,3.657q-.408,1.8-.792,3.464t-.713,3.068q-.328,1.4-.611,2.468T17.841,40.8H8.128q-.34-1.449-.849-3.77T6.17,31.9L4.9,25.969q-.668-3.124-1.313-6.238T2.332,13.72q-.611-2.9-1.1-5.253T.419,4.483Q.091,2.853,0,2.309L7.426.475l5.887,27.894L18.52,4.324H25.7L30.9,28.278ZM54.949,33.463H68.783v7.766H46.98V.113h7.653Zm41.569-1.177L83.069,32.2l-3.147,9.758L72.79,39.146q.136-.43.532-1.641t1-3.023q.6-1.811,1.347-4.087t1.574-4.8q.826-2.524,1.709-5.185l1.743-5.253q.86-2.592,1.653-4.992t1.46-4.392q.668-1.992,1.166-3.475t.747-2.23L93.348,0q.317.725.872,2.2T95.488,5.66q.713,1.992,1.54,4.4t1.721,5.026q.894,2.615,1.8,5.3t1.755,5.23q.849,2.547,1.608,4.845t1.358,4.121q.6,1.823,1.008,3.045t.543,1.653l-7.132,2.807ZM85.9,24.52l7.788.023L89.794,12.136Z" transform="translate(31.284 2.951)" fill="#fff"/>
      <path id="Path_8266" data-name="Path 8266" d="M23.728,32.286,10.279,32.2,7.132,41.954,0,39.146q.136-.43.532-1.641t1-3.023q.6-1.811,1.347-4.087t1.574-4.8q.826-2.524,1.709-5.185L7.9,15.158q.86-2.592,1.653-4.992t1.46-4.392q.668-1.992,1.166-3.475t.747-2.23L20.558,0q.317.725.872,2.2T22.7,5.66q.713,1.992,1.54,4.4t1.721,5.026q.894,2.615,1.8,5.3t1.755,5.23q.849,2.547,1.607,4.845t1.358,4.121q.6,1.823,1.008,3.045t.543,1.653L26.9,42.089ZM13.109,24.52l7.788.023L17,12.136Z" transform="translate(0 1.765)" fill="#fff"/>
      <path id="Path_8265" data-name="Path 8265" d="M27.8,20.316a20.08,20.08,0,0,1-.792,6.339,17.779,17.779,0,0,1-6.826,9.532,22.687,22.687,0,0,1-5.615,2.9,28.493,28.493,0,0,1-6.792,1.472A36.453,36.453,0,0,1,0,40.444V.211a44,44,0,0,1,7.37-.1,29.631,29.631,0,0,1,6.566,1.2,22.2,22.2,0,0,1,5.547,2.558A17.073,17.073,0,0,1,23.8,7.852a18.508,18.508,0,0,1,2.841,5.468A24.921,24.921,0,0,1,27.8,20.316Zm-7.019,1.63a18.465,18.465,0,0,0-.668-5.309,12.538,12.538,0,0,0-2.332-4.551,12.384,12.384,0,0,0-4.234-3.294A17.149,17.149,0,0,0,7.177,7.229L7.336,34.24a17.139,17.139,0,0,0,5.479-1.234,13.886,13.886,0,0,0,4.223-2.683,12,12,0,0,0,2.728-3.792A11.462,11.462,0,0,0,20.784,21.946Z" transform="translate(135.099 4.829) rotate(-10)" fill="#fff"/>
    </g>
    <g id="Mask_Group_33" data-name="Mask Group 33" transform="translate(166.374 484.219)" clip-path="url(#clip-path)">
      <path id="Path_8965" data-name="Path 8965" d="M11.389,30.16a12.31,12.31,0,0,1-6.009-1.418A9.912,9.912,0,0,1,1.4,24.825,11.477,11.477,0,0,1,0,19.131a12.851,12.851,0,0,1,1.463-6.1A11.1,11.1,0,0,1,5.6,8.643a11.634,11.634,0,0,1,6.144-1.621,11.362,11.362,0,0,1,6.415,1.8,9.962,9.962,0,0,1,3.849,4.5,3.317,3.317,0,0,1,.27,1.215q0,1.26-1.756,1.711a3.119,3.119,0,0,1-.9.135,1.859,1.859,0,0,1-1.26-.428,5.511,5.511,0,0,1-1.035-1.328,6.9,6.9,0,0,0-2.071-2.386,5.3,5.3,0,0,0-3.2-.945,5.748,5.748,0,0,0-3.421,1.058,7.066,7.066,0,0,0-2.318,2.858,9.322,9.322,0,0,0-.833,3.961A7.021,7.021,0,0,0,7.135,24.06a6.122,6.122,0,0,0,4.794,1.823,5.971,5.971,0,0,0,4.479-1.553A5.115,5.115,0,0,0,17.961,20.8a1.457,1.457,0,0,1,.63-1.17,2.62,2.62,0,0,1,1.666-.5,3.235,3.235,0,0,1,1.936.5,1.984,1.984,0,0,1,.675,1.711,8.144,8.144,0,0,1-1.193,4.186,8.856,8.856,0,0,1-3.759,3.331A14.356,14.356,0,0,1,11.389,30.16ZM65,7.2a7.14,7.14,0,0,1,5.987,2.723Q73.1,12.649,73.1,18.051l-.045,10.308a1.468,1.468,0,0,1-.765,1.35,3.771,3.771,0,0,1-1.936.45,4.4,4.4,0,0,1-1.981-.405,1.3,1.3,0,0,1-.81-1.215V18.006a11.762,11.762,0,0,0-.765-4.974,2.654,2.654,0,0,0-2.566-1.508,3.238,3.238,0,0,0-2.746,1.418A11.712,11.712,0,0,0,59.869,17.6a28.87,28.87,0,0,0-.315,4.5l.045,6.077a1.723,1.723,0,0,1-.743,1.508,3.446,3.446,0,0,1-2,.518,3.338,3.338,0,0,1-2-.54,1.737,1.737,0,0,1-.743-1.485q0-7.562-.315-14.945a3.259,3.259,0,0,0-.225-1.26,6.159,6.159,0,0,0-.518-.99q-.293-.45-.383-.63A1.385,1.385,0,0,1,52.4,9.5a1.976,1.976,0,0,1,.968-1.53,3.11,3.11,0,0,1,1.823-.72,1.517,1.517,0,0,1,.855.27,3.932,3.932,0,0,1,.9.945,4.6,4.6,0,0,1,1.08,2.7v.36a7.529,7.529,0,0,1,2.5-3.083A7.4,7.4,0,0,1,65,7.2Zm25.568,14.54a2.571,2.571,0,0,1,1.823.54,2.28,2.28,0,0,1,.563,1.711,5.979,5.979,0,0,1-1.778,4.479A6.214,6.214,0,0,1,86.653,30.2a5.731,5.731,0,0,1-5.424-3.083q-1.688-3.083-1.688-9.791,0-1.4.09-3.826l-1.621-.09q-2.161-.09-2.161-2.116a2.087,2.087,0,0,1,.585-1.643,2.758,2.758,0,0,1,1.936-.473l1.621.09q.315-3.2,1.035-7.337Q81.386,0,83.682,0A2.949,2.949,0,0,1,85.82.72a1.807,1.807,0,0,1,.563,1.711q-.72,4.862-.945,7.112l2.746.045a1.8,1.8,0,0,1,1.981,2.026,1.979,1.979,0,0,1-.54,1.53,2.718,2.718,0,0,1-1.846.5h-2.7q-.09,2.341-.09,3.691a33.169,33.169,0,0,0,.45,6.662q.45,1.891,1.576,1.891a1.118,1.118,0,0,0,1.035-.518,3.788,3.788,0,0,0,.36-1.733,1.99,1.99,0,0,1,.54-1.44A2.377,2.377,0,0,1,90.569,21.742ZM108.08,30.52a13.566,13.566,0,0,1-6.73-1.553,10.186,10.186,0,0,1-4.164-4.231,12.809,12.809,0,0,1-1.4-6.009,11.76,11.76,0,0,1,1.553-6.009A11.026,11.026,0,0,1,101.62,8.53a13.344,13.344,0,0,1,11.726-.293,9.353,9.353,0,0,1,5.357,8.688,4.231,4.231,0,0,1-.563,2.5,2.489,2.489,0,0,1-2.093.743l-15.44.135a4.888,4.888,0,0,0,.855,2.611,6.791,6.791,0,0,0,2.521,2.273,7.954,7.954,0,0,0,3.916.923,7.656,7.656,0,0,0,2.588-.383,6.057,6.057,0,0,0,1.733-.923,16.545,16.545,0,0,0,1.576-1.485,2.065,2.065,0,0,1,1.485-.675,2.5,2.5,0,0,1,1.643.675,1.985,1.985,0,0,1,.788,1.53,2.629,2.629,0,0,1-.5,1.4,10.183,10.183,0,0,1-3.264,2.948A11.243,11.243,0,0,1,108.08,30.52Zm5.537-13.954a.612.612,0,0,0,.473-.135.8.8,0,0,0,.113-.5,4.085,4.085,0,0,0-1.846-3.421,8.315,8.315,0,0,0-8.35-.428,7.121,7.121,0,0,0-2.521,2.251,4.442,4.442,0,0,0-.878,2.363Zm17.6,13.954a9.946,9.946,0,0,1-5.447-1.485,8.853,8.853,0,0,1-3.421-3.871,2.622,2.622,0,0,1-.27-1.17,2.274,2.274,0,0,1,.9-1.485,2.689,2.689,0,0,1,1.756-.675,1.527,1.527,0,0,1,.99.293,6.19,6.19,0,0,1,.81.833,12.842,12.842,0,0,0,2.251,2.363,4.01,4.01,0,0,0,2.476.743,4.239,4.239,0,0,0,2.363-.63,1.933,1.933,0,0,0-.09-3.4,21.475,21.475,0,0,0-3.4-1.418,32.98,32.98,0,0,1-3.849-1.53,7.147,7.147,0,0,1-2.521-2.093,5.549,5.549,0,0,1-1.058-3.489,5.95,5.95,0,0,1,1.17-3.646,7.54,7.54,0,0,1,3.174-2.431,11.062,11.062,0,0,1,4.389-.855,9.6,9.6,0,0,1,4.389.945,7.082,7.082,0,0,1,2.858,2.5,6.122,6.122,0,0,1,.99,3.354,2.213,2.213,0,0,1-.563,1.666,2.647,2.647,0,0,1-1.868.54,2.533,2.533,0,0,1-1.688-.405A2.01,2.01,0,0,1,135,14.045q-.315-3.016-3.556-3.016a3.643,3.643,0,0,0-2.431.7,2.109,2.109,0,0,0-.81,1.643,1.947,1.947,0,0,0,1.08,1.756,20.485,20.485,0,0,0,3.466,1.44,28.169,28.169,0,0,1,3.781,1.44,7.182,7.182,0,0,1,2.543,2.071,5.454,5.454,0,0,1,1.058,3.466,5.847,5.847,0,0,1-1.328,3.939,7.885,7.885,0,0,1-3.376,2.3A12.255,12.255,0,0,1,131.217,30.52Zm26.2-8.778a2.571,2.571,0,0,1,1.823.54,2.28,2.28,0,0,1,.563,1.711,5.979,5.979,0,0,1-1.778,4.479A6.214,6.214,0,0,1,153.5,30.2a5.731,5.731,0,0,1-5.424-3.083q-1.688-3.083-1.688-9.791,0-1.4.09-3.826l-1.621-.09q-2.161-.09-2.161-2.116a2.087,2.087,0,0,1,.585-1.643,2.757,2.757,0,0,1,1.936-.473l1.621.09q.315-3.2,1.035-7.337Q148.233,0,150.528,0a2.949,2.949,0,0,1,2.138.72,1.807,1.807,0,0,1,.563,1.711q-.72,4.862-.945,7.112l2.746.045a1.8,1.8,0,0,1,1.981,2.026,1.979,1.979,0,0,1-.54,1.53,2.718,2.718,0,0,1-1.846.5h-2.7q-.09,2.341-.09,3.691a33.172,33.172,0,0,0,.45,6.662q.45,1.891,1.576,1.891a1.118,1.118,0,0,0,1.035-.518,3.788,3.788,0,0,0,.36-1.733,1.99,1.99,0,0,1,.54-1.44A2.377,2.377,0,0,1,157.416,21.742Z" transform="translate(-29.406 38.813)" fill="#ddd"/>
    </g>
    <g id="Mask_Group_34" data-name="Mask Group 34" transform="translate(270.189 481.269)" clip-path="url(#clip-path-2)">
      <path id="Path_8966" data-name="Path 8966" d="M11.389,30.16a12.31,12.31,0,0,1-6.009-1.418A9.912,9.912,0,0,1,1.4,24.825,11.477,11.477,0,0,1,0,19.131a12.851,12.851,0,0,1,1.463-6.1A11.1,11.1,0,0,1,5.6,8.643a11.634,11.634,0,0,1,6.144-1.621,11.362,11.362,0,0,1,6.415,1.8,9.962,9.962,0,0,1,3.849,4.5,3.317,3.317,0,0,1,.27,1.215q0,1.26-1.756,1.711a3.119,3.119,0,0,1-.9.135,1.859,1.859,0,0,1-1.26-.428,5.511,5.511,0,0,1-1.035-1.328,6.9,6.9,0,0,0-2.071-2.386,5.3,5.3,0,0,0-3.2-.945,5.748,5.748,0,0,0-3.421,1.058,7.066,7.066,0,0,0-2.318,2.858,9.322,9.322,0,0,0-.833,3.961A7.021,7.021,0,0,0,7.135,24.06a6.122,6.122,0,0,0,4.794,1.823,5.971,5.971,0,0,0,4.479-1.553A5.115,5.115,0,0,0,17.961,20.8a1.457,1.457,0,0,1,.63-1.17,2.62,2.62,0,0,1,1.666-.5,3.235,3.235,0,0,1,1.936.5,1.984,1.984,0,0,1,.675,1.711,8.144,8.144,0,0,1-1.193,4.186,8.856,8.856,0,0,1-3.759,3.331A14.356,14.356,0,0,1,11.389,30.16ZM65,7.2a7.14,7.14,0,0,1,5.987,2.723Q73.1,12.649,73.1,18.051l-.045,10.308a1.468,1.468,0,0,1-.765,1.35,3.771,3.771,0,0,1-1.936.45,4.4,4.4,0,0,1-1.981-.405,1.3,1.3,0,0,1-.81-1.215V18.006a11.762,11.762,0,0,0-.765-4.974,2.654,2.654,0,0,0-2.566-1.508,3.238,3.238,0,0,0-2.746,1.418A11.712,11.712,0,0,0,59.869,17.6a28.87,28.87,0,0,0-.315,4.5l.045,6.077a1.723,1.723,0,0,1-.743,1.508,3.446,3.446,0,0,1-2,.518,3.338,3.338,0,0,1-2-.54,1.737,1.737,0,0,1-.743-1.485q0-7.562-.315-14.945a3.259,3.259,0,0,0-.225-1.26,6.159,6.159,0,0,0-.518-.99q-.293-.45-.383-.63A1.385,1.385,0,0,1,52.4,9.5a1.976,1.976,0,0,1,.968-1.53,3.11,3.11,0,0,1,1.823-.72,1.517,1.517,0,0,1,.855.27,3.932,3.932,0,0,1,.9.945,4.6,4.6,0,0,1,1.08,2.7v.36a7.529,7.529,0,0,1,2.5-3.083A7.4,7.4,0,0,1,65,7.2Zm25.568,14.54a2.571,2.571,0,0,1,1.823.54,2.28,2.28,0,0,1,.563,1.711,5.979,5.979,0,0,1-1.778,4.479A6.214,6.214,0,0,1,86.653,30.2a5.731,5.731,0,0,1-5.424-3.083q-1.688-3.083-1.688-9.791,0-1.4.09-3.826l-1.621-.09q-2.161-.09-2.161-2.116a2.087,2.087,0,0,1,.585-1.643,2.758,2.758,0,0,1,1.936-.473l1.621.09q.315-3.2,1.035-7.337Q81.386,0,83.682,0A2.949,2.949,0,0,1,85.82.72a1.807,1.807,0,0,1,.563,1.711q-.72,4.862-.945,7.112l2.746.045a1.8,1.8,0,0,1,1.981,2.026,1.979,1.979,0,0,1-.54,1.53,2.718,2.718,0,0,1-1.846.5h-2.7q-.09,2.341-.09,3.691a33.169,33.169,0,0,0,.45,6.662q.45,1.891,1.576,1.891a1.118,1.118,0,0,0,1.035-.518,3.788,3.788,0,0,0,.36-1.733,1.99,1.99,0,0,1,.54-1.44A2.377,2.377,0,0,1,90.569,21.742ZM108.08,30.52a13.566,13.566,0,0,1-6.73-1.553,10.186,10.186,0,0,1-4.164-4.231,12.809,12.809,0,0,1-1.4-6.009,11.76,11.76,0,0,1,1.553-6.009A11.026,11.026,0,0,1,101.62,8.53a13.344,13.344,0,0,1,11.726-.293,9.353,9.353,0,0,1,5.357,8.688,4.231,4.231,0,0,1-.563,2.5,2.489,2.489,0,0,1-2.093.743l-15.44.135a4.888,4.888,0,0,0,.855,2.611,6.791,6.791,0,0,0,2.521,2.273,7.954,7.954,0,0,0,3.916.923,7.656,7.656,0,0,0,2.588-.383,6.057,6.057,0,0,0,1.733-.923,16.545,16.545,0,0,0,1.576-1.485,2.065,2.065,0,0,1,1.485-.675,2.5,2.5,0,0,1,1.643.675,1.985,1.985,0,0,1,.788,1.53,2.629,2.629,0,0,1-.5,1.4,10.183,10.183,0,0,1-3.264,2.948A11.243,11.243,0,0,1,108.08,30.52Zm5.537-13.954a.612.612,0,0,0,.473-.135.8.8,0,0,0,.113-.5,4.085,4.085,0,0,0-1.846-3.421,8.315,8.315,0,0,0-8.35-.428,7.121,7.121,0,0,0-2.521,2.251,4.442,4.442,0,0,0-.878,2.363Zm17.6,13.954a9.946,9.946,0,0,1-5.447-1.485,8.853,8.853,0,0,1-3.421-3.871,2.622,2.622,0,0,1-.27-1.17,2.274,2.274,0,0,1,.9-1.485,2.689,2.689,0,0,1,1.756-.675,1.527,1.527,0,0,1,.99.293,6.19,6.19,0,0,1,.81.833,12.842,12.842,0,0,0,2.251,2.363,4.01,4.01,0,0,0,2.476.743,4.239,4.239,0,0,0,2.363-.63,1.933,1.933,0,0,0-.09-3.4,21.475,21.475,0,0,0-3.4-1.418,32.98,32.98,0,0,1-3.849-1.53,7.147,7.147,0,0,1-2.521-2.093,5.549,5.549,0,0,1-1.058-3.489,5.95,5.95,0,0,1,1.17-3.646,7.54,7.54,0,0,1,3.174-2.431,11.062,11.062,0,0,1,4.389-.855,9.6,9.6,0,0,1,4.389.945,7.082,7.082,0,0,1,2.858,2.5,6.122,6.122,0,0,1,.99,3.354,2.213,2.213,0,0,1-.563,1.666,2.647,2.647,0,0,1-1.868.54,2.533,2.533,0,0,1-1.688-.405A2.01,2.01,0,0,1,135,14.045q-.315-3.016-3.556-3.016a3.643,3.643,0,0,0-2.431.7,2.109,2.109,0,0,0-.81,1.643,1.947,1.947,0,0,0,1.08,1.756,20.485,20.485,0,0,0,3.466,1.44,28.169,28.169,0,0,1,3.781,1.44,7.182,7.182,0,0,1,2.543,2.071,5.454,5.454,0,0,1,1.058,3.466,5.847,5.847,0,0,1-1.328,3.939,7.885,7.885,0,0,1-3.376,2.3A12.255,12.255,0,0,1,131.217,30.52Zm26.2-8.778a2.571,2.571,0,0,1,1.823.54,2.28,2.28,0,0,1,.563,1.711,5.979,5.979,0,0,1-1.778,4.479A6.214,6.214,0,0,1,153.5,30.2a5.731,5.731,0,0,1-5.424-3.083q-1.688-3.083-1.688-9.791,0-1.4.09-3.826l-1.621-.09q-2.161-.09-2.161-2.116a2.087,2.087,0,0,1,.585-1.643,2.757,2.757,0,0,1,1.936-.473l1.621.09q.315-3.2,1.035-7.337Q148.233,0,150.528,0a2.949,2.949,0,0,1,2.138.72,1.807,1.807,0,0,1,.563,1.711q-.72,4.862-.945,7.112l2.746.045a1.8,1.8,0,0,1,1.981,2.026,1.979,1.979,0,0,1-.54,1.53,2.718,2.718,0,0,1-1.846.5h-2.7q-.09,2.341-.09,3.691a33.172,33.172,0,0,0,.45,6.662q.45,1.891,1.576,1.891a1.118,1.118,0,0,0,1.035-.518,3.788,3.788,0,0,0,.36-1.733,1.99,1.99,0,0,1,.54-1.44A2.377,2.377,0,0,1,157.416,21.742Z" transform="translate(-133.221 41.763)" fill="#ddd"/>
    </g>
  </g>
</svg>
